<?xml version="1.0" encoding="utf-8"?>
<!-- Uploaded to: SVG Repo, www.svgrepo.com, Generator: SVG Repo Mixer Tools -->
<svg width="800px" height="800px" viewBox="0 0 1024 1024" class="icon"  version="1.1" xmlns="http://www.w3.org/2000/svg"><path d="M598 276.5c0-42.3-38.6-76.8-86-76.8s-86 34.5-86 76.8v103.4h172V276.5z" fill="none" /><path d="M674 379.9V270.5c0-80.4-72.7-145.8-162-145.8s-162 65.4-162 145.8v109.4h46V276.5c0-58.9 52.1-106.8 116-106.8s116 47.9 116 106.8v103.4h46zM749.2 409.9H274.8c-8.3 0-15 6.7-15 15v459.5c0 8.3 6.7 15 15 15h255.8l233.6-233.6V424.9c0-8.3-6.7-15-15-15z m-447.5 93.7c0-24.4 19.8-44.2 44.2-44.2s44.2 19.8 44.2 44.2c0 24.4-19.8 44.2-44.2 44.2s-44.2-19.8-44.2-44.2zM749.2 899.4c8.3 0 15-6.7 15-15v-56.5l-71.5 71.5h56.5zM650.2 899.4l114-114v-77.2L573 899.4z" fill="#FFBC00" /><path d="M749.2 379.9H704V270.5c0-47.2-20.2-91.6-56.8-124.8-36.2-32.9-84.2-51-135.2-51s-99 18.1-135.2 51C340.2 179 320 223.3 320 270.5v109.4h-45.2c-24.8 0-45 20.2-45 45v459.5c0 24.8 20.2 45 45 45h474.4c24.8 0 45-20.2 45-45V424.9c0-24.8-20.2-45-45-45zM426 276.5c0-42.3 38.6-76.8 86-76.8s86 34.5 86 76.8v103.4H426V276.5z m86-106.8c-64 0-116 47.9-116 106.8v103.4h-46V270.5c0-80.4 72.7-145.8 162-145.8s162 65.4 162 145.8v109.4h-46V276.5c0-58.9-52-106.8-116-106.8z m252.2 714.7c0 8.3-6.7 15-15 15h-56.5l71.5-71.5v56.5z m0-99l-114 114H573l191.2-191.2v77.2z m0-119.6L530.6 899.4H274.8c-8.3 0-15-6.7-15-15V424.9c0-8.3 6.7-15 15-15h474.4c8.3 0 15 6.7 15 15v240.9z" fill="#46287C" /><path d="M345.9 503.6m-44.2 0a44.2 44.2 0 1 0 88.4 0 44.2 44.2 0 1 0-88.4 0Z" fill="#FFFFFF" /></svg>